<?xml version="1.0" encoding="UTF-8"?>
<svg xmlns="http://www.w3.org/2000/svg" width="177" height="103" viewBox="0 0 177 103" fill="none">
  <path fill-rule="evenodd" clip-rule="evenodd" d="M80.3216 0.778264C70.5429 2.91383 61.1913 9.43544 55.669 17.9699L53.8919 20.7166L59.1628 20.8453L64.4333 20.9744L67.326 18.0816C72.7645 12.6431 79.5095 9.61077 87.117 9.18412C92.4873 8.88335 96.9283 9.81265 102.017 12.303C105.164 13.843 106.653 14.9614 109.8 18.1485C115.651 24.0754 118.012 29.394 118.386 37.4917C118.635 42.8716 117.886 47.276 116.024 51.3883L114.988 53.6772L113.393 51.1594C112.515 49.7746 108.553 43.3367 104.586 36.8536L97.3746 25.0656H93.287C91.0389 25.0656 89.1995 25.1933 89.1995 25.349C89.1995 25.5046 94.9955 35.2014 102.08 46.8969L114.96 68.1615L116.766 66.4128C121.468 61.8587 125.996 52.9754 127.232 45.8802C127.91 41.9872 127.536 32.5774 126.56 28.9568C125.41 24.6888 121.56 17.3977 118.563 13.8096C113.778 8.08177 106.97 3.682 99.4827 1.47959C93.7966 -0.193613 86.0659 -0.476525 80.3216 0.778264ZM51.7096 26.0855C49.4605 32.0148 49.0114 42.1776 50.7121 48.6415C55.501 66.8417 71.8325 78.9616 90.3201 78.035C93.3603 77.8826 96.7497 77.3932 98.813 76.8086C102.286 75.8248 108.729 72.868 110.578 71.4095L111.584 70.6152L109.293 66.8509L107.002 63.0865L104.624 64.659C92.3225 72.7938 74.5609 69.8036 65.2257 58.0261C60.0953 51.5535 57.4049 41.7807 58.814 34.7363L59.1001 33.3057H62.4497H65.7993L71.61 43.0337C74.8058 48.3843 77.7535 53.1095 78.16 53.5348C78.7821 54.1858 79.4976 54.2659 82.676 54.0416C84.753 53.8951 86.4427 53.6502 86.4303 53.4973C86.4184 53.3444 82.5515 46.9363 77.8382 39.2569L69.268 25.2945L60.6859 25.17C52.1299 25.0459 52.1029 25.0487 51.7096 26.0855ZM75.0846 25.4762C75.1684 25.7024 79.0481 32.1906 83.7061 39.8946L92.1751 53.902L96.4357 53.9038L100.696 53.9061L99.6402 52.1683C99.0593 51.2125 95.1031 44.7234 90.8489 37.7481L83.1137 25.0656H79.0229C76.7729 25.0656 75.0004 25.2505 75.0846 25.4762ZM92.7048 43.1701C92.9826 43.8948 91.7283 45.1665 90.7088 45.1935C90.3325 45.2036 90.4048 44.7737 90.9377 43.8375C91.8089 42.3063 92.3019 42.1199 92.7048 43.1701ZM0.140111 89.2718C0.0105581 89.6096 -0.0379671 92.7606 0.032074 96.2732L0.160253 102.66H2.22029H4.28032L4.41171 97.8832L4.54309 93.1067L7.29255 97.9977C10.0255 102.86 10.0521 102.889 11.7642 102.889C13.4722 102.889 13.5079 102.85 16.2079 98.0924L18.9294 93.2957L19.0595 98.0924L19.1895 102.889H21.2339H23.2784V95.7733V88.6575L19.9595 88.792L16.6405 88.9266L14.2605 93.2394L11.8809 97.5518L11.056 96.0841C10.6028 95.2766 9.49999 93.3356 8.60639 91.7713L6.98125 88.9266L3.67879 88.792C1.24017 88.6927 0.31407 88.8181 0.140111 89.2718ZM25.1095 95.8044V102.911L32.7775 102.786L40.4454 102.66L40.5873 100.943L40.7296 99.2268H35.2083C29.9927 99.2268 29.6874 99.176 29.6874 98.3112C29.6874 97.4511 29.9927 97.3957 34.723 97.3957H39.7587V95.7934V94.1912H34.723C29.9927 94.1912 29.6874 94.1358 29.6874 93.2756C29.6874 92.4108 29.9927 92.36 35.1808 92.36H40.6742V90.5289V88.6977H32.8919H25.1095V95.8044ZM41.6782 90.6433L41.8187 92.5889L44.6799 92.7253L47.541 92.8613V97.8754V102.889H49.8299H52.1189V97.8754V92.8613L54.98 92.7253L57.8412 92.5889L57.9817 90.6433L58.1227 88.6977H49.8299H41.5372L41.6782 90.6433ZM58.6423 95.484C56.5653 99.2337 54.8656 102.434 54.8656 102.595C54.8656 102.757 55.9052 102.889 57.176 102.889C59.2626 102.889 59.5616 102.757 60.2661 101.518C61.0434 100.152 61.0585 100.148 65.2683 100.145L69.4914 100.142L70.2014 101.516C70.846 102.762 71.1215 102.889 73.1889 102.889C74.4414 102.889 75.4641 102.734 75.4618 102.546C75.46 102.357 73.8307 99.2154 71.8421 95.5645L68.2265 88.9266L65.3228 88.7966L62.419 88.6662L58.6423 95.484ZM76.8393 95.7682V102.889H83.7322H90.6255L90.4845 100.943L90.3439 98.9979L85.8956 98.867L81.4478 98.7361L81.3178 93.8314L81.1882 88.9266L79.0138 88.787L76.8393 88.6474V95.7682ZM160.464 89.1102C157.58 89.72 156.767 90.9162 156.569 94.8435C156.342 99.3321 157.037 101.407 159.047 102.247C161.06 103.088 169.81 103.08 172.178 102.234C173.129 101.895 174.012 101.801 174.151 102.026C174.632 102.805 175.578 102.422 176.122 101.228C176.424 100.566 176.594 99.9474 176.5 99.8531C176.149 99.5024 166.436 96.915 166.232 97.1178C166.116 97.2345 166.813 97.7472 167.781 98.2581L169.541 99.1865L166.03 99.2067C161.099 99.235 161.072 99.2158 161.072 95.7531C161.072 92.2877 161.148 92.2438 166.795 92.453L170.456 92.5889L170.685 94.8595C170.927 97.2551 171.458 97.6891 174.294 97.8077C175.367 97.8525 175.382 97.7971 175.154 94.6027C174.963 91.937 174.717 91.1483 173.789 90.2194C172.742 89.1729 172.261 89.074 167.436 88.9134C164.565 88.8181 161.428 88.9065 160.464 89.1102ZM91.5905 95.8882L91.7173 102.66L93.6478 102.8L95.5778 102.94L95.7078 97.8768L95.8374 92.8137L98.6015 97.7367C101.255 102.465 101.431 102.666 103.019 102.799L104.672 102.939L107.58 97.8383L110.486 92.7377L110.616 97.8388L110.746 102.94L112.676 102.8L114.607 102.66L114.733 95.9079L114.86 89.1555H111.426H107.992L106.17 92.4745C103.028 98.1963 103.405 98.1277 100.774 93.4605L98.4774 89.3844L94.9703 89.2503L91.4637 89.1166L91.5905 95.8882ZM123.2 89.7278C122.325 90.8525 116.209 101.952 116.209 102.416C116.209 102.676 117.145 102.889 118.29 102.889C120.123 102.889 120.464 102.725 121.152 101.518L121.931 100.148H126.28H130.629L131.409 101.518C132.096 102.725 132.437 102.889 134.27 102.889C135.446 102.889 136.351 102.676 136.351 102.398C136.351 102.128 134.755 99.0382 132.804 95.5316L129.256 89.1564L126.45 89.156C124.749 89.1555 123.47 89.3808 123.2 89.7278ZM137.96 92.9323C137.792 95.0092 137.722 98.048 137.804 99.6846L137.954 102.66H140.014C142.067 102.66 142.074 102.655 142.217 100.926L142.36 99.192L146.337 99.3239L150.314 99.4557L150.543 101.058C150.766 102.618 150.826 102.66 152.832 102.66H154.892L155.032 100.732C155.137 99.274 154.955 98.6184 154.285 98.0448C153.418 97.3023 153.417 97.2679 154.26 96.4252C155.489 95.196 155.456 91.3218 154.205 90.0711C153.364 89.2301 152.679 89.1555 145.777 89.1555H138.265L137.96 92.9323ZM66.795 95.2212L67.7023 96.9379H65.1754H62.6484L63.9041 94.6883C65.2408 92.2936 65.2491 92.2955 66.795 95.2212ZM127.782 94.8778L129.017 97.3957H126.28H123.543L124.778 94.8778C125.457 93.493 126.133 92.36 126.28 92.36C126.427 92.36 127.103 93.493 127.782 94.8778ZM150.772 93.9623V95.3356L146.537 95.4675L142.303 95.5989V93.9623V92.3257L146.537 92.4571L150.772 92.5889V93.9623Z" fill="black"></path>
</svg>
